<svg width="245" height="218" viewBox="0 0 245 218" fill="none" xmlns="http://www.w3.org/2000/svg">
<path d="M0.840712 142.505C11.7872 126.039 64.7015 138.314 83.2319 172.693C106.395 215.667 92.0662 227.542 63.7313 206.488C32.3818 183.195 19.7961 133.198 28.3177 117.461C35.1346 104.871 55.2383 99.3329 77.5543 113.782C105.449 131.844 142.132 167.074 134.419 178.681C126.707 190.288 94.7365 182.807 73.6336 147.111C52.5307 111.414 60.2793 85.3482 70.782 78.7571C78.4403 73.9511 105.907 69.6302 139.171 101.109C172.435 132.587 171.395 144.98 166.892 149.084C163.866 151.842 142.35 162.296 115.222 127.515C88.093 92.7327 85.7694 65.0969 97.01 54.8518C103.736 48.7217 138.598 35.256 175.171 72.8738C204.43 102.968 205.932 117.012 196.867 121.764C192.875 123.856 166.869 123.47 144.167 96.5554C115.789 62.912 118.859 24.9408 139.474 16.1479C150.46 11.4622 191.099 12.581 225.065 54.8641C259.03 97.1471 240.791 122.298 212.511 93.7717C209.878 91.1165 170.055 52.6347 160.423 29.097C152.16 8.90714 154.504 0.16952 160.487 1.57281" stroke="#FF7A24" stroke-width="1.38053"/>
</svg>
